<svg id="Layer_1" data-name="Layer 1" fill="#D08C58" xmlns="http://www.w3.org/2000/svg" viewBox="0 0 128 128"  ><title>SMART TV</title><path d="M109.605,97.421l-2-2h0l-5.926-5.926h0L87.231,75.047a8.615,8.615,0,0,0-10.82-1.111l-2.54-2.54A33.208,33.208,0,1,0,71.4,73.871l2.54,2.54a8.631,8.631,0,0,0,1.11,10.82L97.421,109.6a8.616,8.616,0,1,0,12.185-12.184ZM28.091,70.192a29.771,29.771,0,1,1,42.1,0A29.576,29.576,0,0,1,28.091,70.192Zm79.04,36.937a5.123,5.123,0,0,1-7.235,0L77.521,84.757a5.116,5.116,0,0,1,7.235-7.235l1.352,1.352L84.03,80.952A1.75,1.75,0,1,0,86.5,83.426l2.078-2.078L92.035,84.8l-2.078,2.078a1.75,1.75,0,1,0,2.475,2.475l2.078-2.078,3.452,3.452-2.078,2.078a1.75,1.75,0,1,0,2.475,2.475l2.078-2.078,3.452,3.452-2.078,2.078a1.75,1.75,0,1,0,2.475,2.475l2.078-2.078.768.767A5.122,5.122,0,0,1,107.131,107.13Z" /><path d="M67.777,30.506A26.354,26.354,0,1,0,75.5,49.142,26.183,26.183,0,0,0,67.777,30.506ZM65.3,65.3A22.855,22.855,0,1,1,72,49.142,22.709,22.709,0,0,1,65.3,65.3Z" /><path d="M66.279,43.806a1.748,1.748,0,0,0-1.412-1.191l-9.782-1.421-4.374-8.863a1.75,1.75,0,0,0-3.139,0L43.2,41.193l-9.782,1.421a1.75,1.75,0,0,0-.97,2.985l7.078,6.9L37.854,62.24a1.75,1.75,0,0,0,2.539,1.845l8.749-4.6,8.748,4.6a1.75,1.75,0,0,0,2.539-1.845L58.758,52.5l7.079-6.9A1.751,1.751,0,0,0,66.279,43.806ZM55.656,50.634a1.751,1.751,0,0,0-.5,1.549l1.227,7.153L49.956,55.96a1.747,1.747,0,0,0-1.629,0L41.9,59.337l1.227-7.154a1.749,1.749,0,0,0-.5-1.549l-5.2-5.066,7.184-1.044a1.751,1.751,0,0,0,1.317-.958l3.212-6.508,3.212,6.508a1.751,1.751,0,0,0,1.317.958l7.184,1.043Z" /><path d="M102.95,57.529a1.75,1.75,0,0,0,1.75-1.75V53.1a1.75,1.75,0,0,0-3.5,0v2.675A1.75,1.75,0,0,0,102.95,57.529Z" /><path d="M97.017,60.983h2.675a1.75,1.75,0,1,0,0-3.5H97.017a1.75,1.75,0,0,0,0,3.5Z" /><path d="M103.145,60.742a1.75,1.75,0,0,0-1.75,1.75v2.675a1.75,1.75,0,0,0,3.5,0V62.492A1.75,1.75,0,0,0,103.145,60.742Z" /><path d="M106.4,60.788h2.676a1.75,1.75,0,0,0,0-3.5H106.4a1.75,1.75,0,1,0,0,3.5Z" /></svg>
