<svg id="Layer_1" data-name="Layer 1" fill="#D08C58" xmlns="http://www.w3.org/2000/svg" viewBox="0 0 128 128"><title>FINGER PRINT</title><path d="M27.5,68.087a1.75,1.75,0,0,0-1.75,1.75v2.675a1.75,1.75,0,0,0,3.5,0V69.837A1.75,1.75,0,0,0,27.5,68.087Z"/><path d="M24.241,74.216H21.566a1.75,1.75,0,0,0,0,3.5h2.675a1.75,1.75,0,1,0,0-3.5Z"/><path d="M27.694,77.475a1.75,1.75,0,0,0-1.75,1.75V81.9a1.75,1.75,0,0,0,3.5,0V79.225A1.75,1.75,0,0,0,27.694,77.475Z"/><path d="M30.953,77.521h2.676a1.75,1.75,0,0,0,0-3.5H30.953a1.75,1.75,0,0,0,0,3.5Z"/><path d="M8.667,47.887a1.75,1.75,0,0,0,1.75-1.75v-.812a1.75,1.75,0,0,0-3.5,0v.813A1.75,1.75,0,0,0,8.667,47.887Z"/><path d="M79.076,35.91a19.388,19.388,0,1,0,0,27.418A19.258,19.258,0,0,0,79.076,35.91ZM76.6,60.853a15.888,15.888,0,1,1,0-22.469A15.783,15.783,0,0,1,76.6,60.853Z"/><path d="M78.853,46.509a1.75,1.75,0,0,0-3.412.783,10.419,10.419,0,0,1,.265,2.368,1.75,1.75,0,0,0,1.742,1.757h.008a1.75,1.75,0,0,0,1.75-1.743A13.894,13.894,0,0,0,78.853,46.509Z"/><path d="M75.151,39.834a13.844,13.844,0,0,0-20.564,1.107,1.75,1.75,0,1,0,2.725,2.2,10.564,10.564,0,0,1,.745-.829,10.352,10.352,0,0,1,14.62,0,1.75,1.75,0,1,0,2.475-2.475Z"/><path d="M119.333,17H8.667a1.75,1.75,0,0,0-1.75,1.75V39.731a1.75,1.75,0,0,0,3.5,0V29.083H47.849c-.537.459-1.065.935-1.574,1.443A27,27,0,0,0,83.177,69.9l1.616,1.616a7.257,7.257,0,0,0,1.08,8.858L96.245,90.75H10.417V58.375a1.75,1.75,0,0,0-3.5,0V92.5a1.75,1.75,0,0,0,1.75,1.75H62.25v9.17L48.518,114.645a1.75,1.75,0,1,0,2.215,2.71l11.518-9.414V116a1.75,1.75,0,0,0,3.5,0v-8.059l11.518,9.414a1.75,1.75,0,0,0,2.215-2.71L65.75,103.42V94.25H99.745L103.8,98.3a7.251,7.251,0,0,0,10.253,0h0a7.185,7.185,0,0,0,2.036-4.051h3.248a1.75,1.75,0,0,0,1.75-1.75V18.75A1.75,1.75,0,0,0,119.333,17ZM81.984,66.236a23.489,23.489,0,1,1,0-33.234A23.348,23.348,0,0,1,81.984,66.236Zm29.59,29.59h0a3.842,3.842,0,0,1-5.3,0L88.348,77.9a3.75,3.75,0,0,1,5.3-5.3l17.923,17.923a3.749,3.749,0,0,1,0,5.3Zm6.009-5.076H115.75a7.21,7.21,0,0,0-1.7-2.7L96.126,70.125a7.234,7.234,0,0,0-8.86-1.082l-1.614-1.615a27.03,27.03,0,0,0-1.193-36.9c-.508-.508-1.036-.984-1.574-1.443h34.7Zm0-65.167H77.661a27.117,27.117,0,0,0-24.587,0H10.417V20.5H117.583Z"/></svg>