<svg id="Layer_1" data-name="Layer 1" fill="#D08C58" xmlns="http://www.w3.org/2000/svg" viewBox="0 0 128 128"><title>DIAL</title><path d="M14.537,79.96a1.75,1.75,0,0,0,1.75-1.75V77.4a1.75,1.75,0,0,0-3.5,0v.813A1.75,1.75,0,0,0,14.537,79.96Z"/><path d="M120.349,98.36A1.749,1.749,0,0,0,119,97.725h-3.787V55.3a8.484,8.484,0,0,0,3.067-6.53v-26a8.51,8.51,0,0,0-8.5-8.5H68.28a8.51,8.51,0,0,0-8.5,8.5V34.22H30.28a8.515,8.515,0,0,0-8.12,5.985H19.7a6.926,6.926,0,0,0-6.917,6.918V71.4a1.75,1.75,0,0,0,3.5,0V47.123A3.422,3.422,0,0,1,19.7,43.7H21.78V68.72a8.51,8.51,0,0,0,8.5,8.5H59.859l17.875,9.142A1.75,1.75,0,0,0,80.28,84.8V57.265h29.5a8.468,8.468,0,0,0,1.933-.23v40.69H79.477a1.749,1.749,0,0,0-1.629,1.11l-1.22,3.106H51.373l-1.22-3.106a1.75,1.75,0,0,0-1.629-1.11H16.287V90.042a1.75,1.75,0,0,0-3.5,0v7.683H9A1.75,1.75,0,0,0,7.281,99.8L9.5,111.345a1.75,1.75,0,0,0,1.719,1.42h105.57a1.75,1.75,0,0,0,1.719-1.42L120.719,99.8A1.748,1.748,0,0,0,120.349,98.36ZM61.077,73.912a1.753,1.753,0,0,0-.8-.192h-30a5.006,5.006,0,0,1-5-5v-26a5.006,5.006,0,0,1,5-5h29.5v9.5H37.687a1.75,1.75,0,0,0,0,3.5H59.78v10.41H37.687a1.75,1.75,0,0,0,0,3.5H59.78v.219a1.75,1.75,0,0,0,2.547,1.558L76.78,59.015V81.943Zm18.7-20.146a1.753,1.753,0,0,0-.8.192l-15.7,8.031V22.765a5.006,5.006,0,0,1,5-5h41.5a5.006,5.006,0,0,1,5,5v26a5.006,5.006,0,0,1-5,5Zm35.559,55.5H12.661l-1.543-8.041H47.331l1.22,3.106a1.75,1.75,0,0,0,1.629,1.11H77.82a1.749,1.749,0,0,0,1.629-1.11l1.22-3.106h36.213Z"/><path d="M102.374,27.265H75.687a1.75,1.75,0,0,0,0,3.5h26.687a1.75,1.75,0,0,0,0-3.5Z"/><path d="M102.374,41.174H75.687a1.75,1.75,0,0,0,0,3.5h26.687a1.75,1.75,0,0,0,0-3.5Z"/><path d="M96.833,63.1a1.75,1.75,0,0,0-1.75,1.75v2.675a1.75,1.75,0,0,0,3.5,0V64.849A1.75,1.75,0,0,0,96.833,63.1Z"/><path d="M93.574,69.227H90.9a1.75,1.75,0,0,0,0,3.5h2.675a1.75,1.75,0,0,0,0-3.5Z"/><path d="M97.028,72.486a1.75,1.75,0,0,0-1.75,1.75v2.675a1.75,1.75,0,0,0,3.5,0V74.236A1.75,1.75,0,0,0,97.028,72.486Z"/><path d="M100.287,72.532h2.675a1.75,1.75,0,0,0,0-3.5h-2.675a1.75,1.75,0,1,0,0,3.5Z"/></svg>