<svg id="Layer_1" data-name="Layer 1" fill="#D08C58" xmlns="http://www.w3.org/2000/svg" viewBox="0 0 128 128"><title>VIRTUAL REALITY</title><path d="M14.537,79.96a1.75,1.75,0,0,0,1.75-1.75V77.4a1.75,1.75,0,0,0-3.5,0v.813A1.75,1.75,0,0,0,14.537,79.96Z"/><path d="M82.705,32.4a1.75,1.75,0,0,0,0,3.5h.72a1.75,1.75,0,0,0,0-3.5Z"/><path d="M89.684,35.9H90.4a1.75,1.75,0,0,0,0-3.5h-.721a1.75,1.75,0,0,0,0,3.5Z"/><path d="M65.366,26.559H81.705a1.75,1.75,0,0,0,0-3.5H65.366a1.75,1.75,0,0,0,0,3.5Z"/><path d="M120.349,98.36A1.749,1.749,0,0,0,119,97.725h-3.787v-50.6a6.926,6.926,0,0,0-6.918-6.918H71.4V35.9h6.595a1.75,1.75,0,0,0,0-3.5H71.323A6,6,0,0,0,65.4,27.305H25.75a6.007,6.007,0,0,0-6,6v6.9H19.7a6.926,6.926,0,0,0-6.917,6.918V71.4a1.75,1.75,0,0,0,3.5,0V47.123A3.422,3.422,0,0,1,19.7,43.7h.045V58.775a6.007,6.007,0,0,0,6,6H56.6v4.18H51.372a1.75,1.75,0,0,0,0,3.5H56.6v9.361a6.007,6.007,0,0,0,6,6H102.25a6.007,6.007,0,0,0,6-6V56.346a6.007,6.007,0,0,0-6-6H71.4V43.7h36.9a3.422,3.422,0,0,1,3.418,3.418v50.6H79.477a1.749,1.749,0,0,0-1.629,1.11l-1.22,3.106H51.373l-1.22-3.106a1.75,1.75,0,0,0-1.629-1.11H16.287V90.042a1.75,1.75,0,0,0-3.5,0v7.683H9A1.75,1.75,0,0,0,7.281,99.8L9.5,111.345a1.75,1.75,0,0,0,1.719,1.42h105.57a1.75,1.75,0,0,0,1.719-1.42L120.719,99.8A1.748,1.748,0,0,0,120.349,98.36ZM63.465,34.5a1.749,1.749,0,0,0-2.475,0l-5.7,5.7-3.5,3.5-2,2a5.9,5.9,0,0,1-8.344,0l-2-2-3.5-3.5-6.11-6.11a1.75,1.75,0,0,0-2.475,2.475L30.987,40.2l3.5,3.5,1.265,1.265-6.96,6.96A1.75,1.75,0,1,0,31.267,54.4l6.96-6.96.738.738a9.4,9.4,0,0,0,13.293,0l.784-.784,5.027,5.027A5.969,5.969,0,0,0,56.6,56.346v4.93H25.75a2.5,2.5,0,0,1-2.5-2.5V33.305a2.5,2.5,0,0,1,2.5-2.5H65.4A2.5,2.5,0,0,1,67.723,32.4h-.585a1.75,1.75,0,0,0,0,3.5H67.9V50.346H62.6a5.972,5.972,0,0,0-1.471.19l-5.612-5.612L56.736,43.7l3.5-3.5,3.229-3.229A1.749,1.749,0,0,0,63.465,34.5ZM102.25,53.846a2.5,2.5,0,0,1,2.5,2.5V81.816a2.5,2.5,0,0,1-2.5,2.5H62.6a2.5,2.5,0,0,1-2.5-2.5V72.456h2.127a1.75,1.75,0,0,0,0-3.5H60.1V56.346a2.475,2.475,0,0,1,.554-1.549,2.59,2.59,0,0,1,.372-.377l.029-.024a2.521,2.521,0,0,1,.4-.258c.026-.014.051-.03.078-.042a2.451,2.451,0,0,1,.406-.149c.039-.011.075-.027.115-.036a2.44,2.44,0,0,1,.548-.065H102.25Zm13.089,55.419H12.661l-1.543-8.041H47.331l1.22,3.106a1.75,1.75,0,0,0,1.629,1.11H77.82a1.749,1.749,0,0,0,1.629-1.11l1.22-3.106h36.213Z"/><path d="M64.2,57.136a1.749,1.749,0,0,0,0,2.475l8.4,8.4-6.96,6.96a1.75,1.75,0,1,0,2.475,2.475l6.96-6.96.738.738a9.412,9.412,0,0,0,13.294,0l.784-.784L96.9,77.445a1.75,1.75,0,0,0,2.475-2.475l-7.006-7.006,7.947-7.948a1.75,1.75,0,1,0-2.475-2.475L86.635,68.748a5.907,5.907,0,0,1-8.345,0L66.678,57.136A1.75,1.75,0,0,0,64.2,57.136Z"/><path d="M46.661,72.456a1.75,1.75,0,0,0,0-3.5h-.72a1.75,1.75,0,0,0,0,3.5Z"/><path d="M39.682,72.456a1.75,1.75,0,0,0,0-3.5h-.72a1.75,1.75,0,0,0,0,3.5Z"/><path d="M30.117,78.386a1.75,1.75,0,0,0,1.75,1.75H48.206a1.75,1.75,0,0,0,0-3.5H31.867A1.75,1.75,0,0,0,30.117,78.386Z"/></svg>