<svg id="Layer_1" data-name="Layer 1" fill="#D08C58" xmlns="http://www.w3.org/2000/svg" viewBox="0 0 128 128"><title>SECURITY CAMERA</title><path d="M106.1,38.922a3.063,3.063,0,1,0,3.063,3.063A3.066,3.066,0,0,0,106.1,38.922Zm0,3.5a.438.438,0,1,1,.438-.437A.438.438,0,0,1,106.1,42.422Z"/><path d="M98.917,38.922a3.063,3.063,0,1,0,3.062,3.063A3.066,3.066,0,0,0,98.917,38.922Zm0,3.5a.438.438,0,1,1,.438-.437A.438.438,0,0,1,98.917,42.422Z"/><path d="M91.729,38.922a3.063,3.063,0,1,0,3.063,3.063A3.066,3.066,0,0,0,91.729,38.922Zm0,3.5a.438.438,0,1,1,.438-.437A.438.438,0,0,1,91.729,42.422Z"/><path d="M14.537,71.384a1.75,1.75,0,0,0,1.75-1.75v-.812a1.75,1.75,0,0,0-3.5,0v.813A1.75,1.75,0,0,0,14.537,71.384Z"/><path d="M113.463,33.893H73.614l-8.08-14.725a1.75,1.75,0,0,0-3.068,0l-8.08,14.725H14.537a1.75,1.75,0,0,0-1.75,1.75V62.977a1.75,1.75,0,1,0,3.5,0v-12.9h29.22L38.139,63.5,25.976,85.673a1.75,1.75,0,0,0,1.534,2.592h72.98a1.75,1.75,0,0,0,1.534-2.592L89.861,63.5l-7.369-13.43h29.22v53.04H16.287v-21.5a1.75,1.75,0,0,0-3.5,0v23.246a1.75,1.75,0,0,0,1.75,1.75h98.926a1.75,1.75,0,0,0,1.75-1.75V35.643A1.75,1.75,0,0,0,113.463,33.893ZM64,23.648l9.207,16.78H54.793ZM16.287,46.575V37.393H52.466L50.3,41.336l-2.875,5.239ZM30.466,84.765,40.709,66.1H87.291L97.534,84.765ZM42.629,62.6,52.873,43.928H75.127L85.371,62.6ZM80.572,46.575,77.7,41.336l-2.164-3.943h36.179v9.182Z"/><path d="M40.9,18.4a1.75,1.75,0,0,0,1.75-1.75V13.979a1.75,1.75,0,0,0-3.5,0v2.675A1.75,1.75,0,0,0,40.9,18.4Z"/><path d="M34.964,21.857H37.64a1.75,1.75,0,0,0,0-3.5H34.964a1.75,1.75,0,0,0,0,3.5Z"/><path d="M41.093,21.616a1.75,1.75,0,0,0-1.75,1.75v2.675a1.75,1.75,0,1,0,3.5,0V23.366A1.75,1.75,0,0,0,41.093,21.616Z"/><path d="M44.352,21.663h2.675a1.75,1.75,0,0,0,0-3.5H44.352a1.75,1.75,0,0,0,0,3.5Z"/></svg>