<svg id="Layer_1" data-name="Layer 1" fill="#D08C58" xmlns="http://www.w3.org/2000/svg" viewBox="0 0 128 128"><title>SMOKE DETECTOR</title><path d="M113.463,23.72H14.537a1.75,1.75,0,0,0-1.75,1.75V52.8a1.75,1.75,0,0,0,3.5,0V39.9h95.426V100.78H16.287V71.446a1.75,1.75,0,0,0-3.5,0V102.53a1.75,1.75,0,0,0,1.75,1.75h98.926a1.75,1.75,0,0,0,1.75-1.75V25.47A1.75,1.75,0,0,0,113.463,23.72ZM111.713,36.4H16.287V27.22h95.426Z"/><path d="M106.1,34.873a3.063,3.063,0,1,0-3.062-3.062A3.066,3.066,0,0,0,106.1,34.873Zm0-3.5a.437.437,0,1,1-.437.438A.438.438,0,0,1,106.1,31.373Z"/><path d="M98.917,34.873a3.063,3.063,0,1,0-3.062-3.062A3.066,3.066,0,0,0,98.917,34.873Zm0-3.5a.437.437,0,1,1-.437.438A.438.438,0,0,1,98.917,31.373Z"/><path d="M91.729,34.873a3.063,3.063,0,1,0-3.062-3.062A3.066,3.066,0,0,0,91.729,34.873Zm0-3.5a.437.437,0,1,1-.437.438A.438.438,0,0,1,91.729,31.373Z"/><path d="M14.537,61.21a1.75,1.75,0,0,0,1.75-1.75v-.812a1.75,1.75,0,0,0-3.5,0v.813A1.75,1.75,0,0,0,14.537,61.21Z"/><path d="M18.59,85.524v8.683a1.75,1.75,0,0,0,1.75,1.75H98.59a1.75,1.75,0,0,0,1.75-1.75V62.656l2.3-2.226a4.721,4.721,0,0,0,2,.455,4.771,4.771,0,1,0-4.771-4.771,4.728,4.728,0,0,0,.332,1.714L81.813,76.216,73.1,67.437a4.773,4.773,0,1,0-8.764.046L48.77,83.048l-9.906-9.92a4.722,4.722,0,0,0,.322-1.682,4.771,4.771,0,1,0-9.142,1.9L19.1,84.287A1.75,1.75,0,0,0,18.59,85.524Zm86.05-30.68a1.271,1.271,0,1,1-.878,2.182l-.053-.063a1.257,1.257,0,0,1-.34-.849A1.272,1.272,0,0,1,104.64,54.844ZM66.838,69.97a4.7,4.7,0,0,0,2.871.271c.038-.008.073-.026.11-.034a4.742,4.742,0,0,0,.782-.253c.016-.007.034-.009.049-.016l9.409,9.48V92.457H50.518V86.249L66.807,69.96C66.817,69.964,66.828,69.965,66.838,69.97Zm30,22.487H83.559V79.42L96.84,66.14ZM68.7,64.31a1.266,1.266,0,0,1,.909,2.152,1.289,1.289,0,0,1-1.782.033A1.265,1.265,0,0,1,68.7,64.31ZM34.415,70.176a1.272,1.272,0,0,1,1.271,1.271,1.254,1.254,0,0,1-.329.833,1.448,1.448,0,0,1-.112.111,1.211,1.211,0,0,1-.4.24,1.249,1.249,0,0,1-.431.087.956.956,0,0,1-.689-.231,1.249,1.249,0,0,1-.582-1.039A1.272,1.272,0,0,1,34.415,70.176ZM22.09,86.249,32.514,75.825c.011,0,.023.006.034.01a4.612,4.612,0,0,0,2.962.242c.047-.011.091-.031.138-.043a4.717,4.717,0,0,0,.787-.283c.024-.011.05-.015.074-.027L47.018,86.247v6.209H22.09Z"/><path d="M48.671,48.333a1.75,1.75,0,0,0-1.75,1.75v2.675a1.75,1.75,0,0,0,3.5,0V50.083A1.75,1.75,0,0,0,48.671,48.333Z"/><path d="M45.412,54.462H42.737a1.75,1.75,0,0,0,0,3.5h2.675a1.75,1.75,0,1,0,0-3.5Z"/><path d="M48.866,57.721a1.75,1.75,0,0,0-1.75,1.75v2.675a1.75,1.75,0,0,0,3.5,0V59.471A1.75,1.75,0,0,0,48.866,57.721Z"/><path d="M52.125,57.768H54.8a1.75,1.75,0,0,0,0-3.5H52.125a1.75,1.75,0,0,0,0,3.5Z"/></svg>