<svg xmlns="http://www.w3.org/2000/svg" width="109" height="60" viewBox="0 0 109 60"><g><g><g ><g><g ><g><path fill="#d08c58" d="M72.95 14.996V34.34c0 9.749-6.06 17.687-18.525 24.26C41.96 52.025 35.9 44.087 35.9 34.339V14.996zM54.695 59.86C67.786 53.026 74.15 44.678 74.15 34.34V13.744H34.7v20.594c0 10.339 6.364 18.687 19.457 25.521l.268.14z"/></g></g></g><g><g ><g><path fill="#d08c58" d="M53.826 59.33V16.297h1.199V59.33z"/></g></g></g><g><g ><g><path fill="#d08c58" d="M35.299 35.199v-1.2H73.55v1.2z"/></g></g></g><g><g ><g><path fill="#d08c58" d="M35.994 40.145v-1.2h18.431v1.2z"/></g></g></g><g><g ><g><path fill="#d08c58" d="M37.631 45.09v-1.2h16.794v1.2z"/></g></g></g><g><g ><g><path fill="#d08c58" d="M40.92 50.367v-1.2h13.505v1.2z"/></g></g></g><g><g ><g><path fill="#d08c58" d="M46.34 55.148V53.95h8.085v1.2z"/></g></g></g><g><g ><g><path fill="#d08c58" d="M58.607 34.19V15.064h1.2V34.19z"/></g></g></g><g><g ><g><path fill="#d08c58" d="M63.389 34.19V15.064h1.199V34.19z"/></g></g></g><g><g ><g><path fill="#d08c58" d="M68.17 34.19V15.064h1.198V34.19z"/></g></g></g><g><g ><g><path fill="#d08c58" d="M39.481 29.459v-9.563h1.2v9.563z"/></g></g></g><g><g ><g><path fill="#d08c58" d="M49.044 29.459v-9.563h1.2v9.563z"/></g></g></g><g><g ><g><path fill="#d08c58" d="M40.08 25.307v-1.2h9.564v1.2z"/></g></g></g><g><g ><g><path fill="#d08c58" d="M59.806 49.35h-1.199V39.188H68.77v1.199h-8.963z"/></g></g></g><g><g ><g><path fill="#d08c58" d="M59.207 45.09v-1.2h4.781v1.2z"/></g></g></g><g><g ><g><path fill="#d08c58" d="M40.08 10.162V8.963H68.77v1.2z"/></g></g></g><g><g ><g><path fill="#d08c58" d="M44.862 5.381A5.387 5.387 0 0 1 39.481 0h1.2a4.187 4.187 0 0 0 4.181 4.182A4.187 4.187 0 0 0 49.044 0h1.2a5.387 5.387 0 0 1-5.382 5.381z"/></g></g></g><g><g ><g><path fill="#d08c58" d="M54.425 5.381A5.387 5.387 0 0 1 49.045 0h1.198a4.187 4.187 0 0 0 4.182 4.182A4.187 4.187 0 0 0 58.607 0h1.2a5.387 5.387 0 0 1-5.382 5.381z"/></g></g></g><g><g ><g><path fill="#d08c58" d="M63.988 5.381A5.387 5.387 0 0 1 58.608 0h1.198a4.187 4.187 0 0 0 4.182 4.182A4.186 4.186 0 0 0 68.17 0h1.2a5.386 5.386 0 0 1-5.38 5.381z"/></g></g></g></g><g ><g><g ><g><g ><path fill="#d08c58" d="M10.896 56.52H9.697v-5.462h.6a5.144 5.144 0 0 0 5.138-5.138v-2.868a6.344 6.344 0 0 1 6.336-6.338v1.2a5.144 5.144 0 0 0-5.137 5.138v2.868a6.347 6.347 0 0 1-5.738 6.31z"/></g></g></g><g ><g><g ><path fill="#d08c58" d="M18.904 40.782v-1.199h2.867v1.2z"/></g></g></g><g ><g><g ><path fill="#d08c58" d="M24.107 46.02l-1.114-.442 1.045-2.635a2.272 2.272 0 0 0-2.266-2.16v-1.2a3.472 3.472 0 0 1 3.468 3.469l-.043.221z"/></g></g></g><g ><g><g ><path fill="#d08c58" d="M19.182 46.02l-1.114-.443 1.092-2.746 1.114.443z"/></g></g></g><g ><g><g ><path fill="#d08c58" d="M14.345 34.445v-5.738h1.199v5.738z"/></g></g></g><g ><g><g ><path fill="#d08c58" d="M30.378 37.913h-3.01l-6.02-3.044-2.868-2.87.847-.847 2.8 2.8 5.524 2.762h2.727z"/></g></g></g><g ><g><g ><path fill="#d08c58" d="M15.731 59.086H7.034l-1.164-9.13 3.827-2.9v-4.004h1.2v4.6l-3.75 2.84.943 7.395h6.304a1.368 1.368 0 0 0-1.228-.768V55.92a2.569 2.569 0 0 1 2.565 2.566z"/></g></g></g><g ><g><g ><path fill="#d08c58" d="M26.153 49.389h-6.918l-1.182-3.85 1.146-.352.922 3.002h5.823l1.75-.63a1.367 1.367 0 0 0-1.415-.305l-.406-1.129a2.552 2.552 0 0 1 1.961.092 2.55 2.55 0 0 1 1.322 1.453l.202.564z"/></g></g></g><g ><g><g ><path fill="#d08c58" d="M27.968 26.438h-3.01V25.24h2.727l5.611-2.805.537 1.072z"/></g></g></g><g ><g><g ><path fill="#d08c58" d="M24.968 32.076l-.658-1.004 9.029-5.923.658 1.003z"/></g></g></g><g ><g><g ><path fill="#d08c58" d="M21.772 37.913v-1.199a1.3 1.3 0 0 0 1.299-1.298h1.199a2.5 2.5 0 0 1-2.498 2.497z"/></g></g></g><g ><g><g ><path fill="#d08c58" d="M24.27 30.01h-1.2v-3.196a2.71 2.71 0 0 0-2.705-2.706v-1.199a3.91 3.91 0 0 1 3.905 3.905z"/></g></g></g><g ><g><g ><path fill="#d08c58" d="M20.365 24.108a4.666 4.666 0 0 1-4.661-4.661v-2.241h1.199v2.24a3.467 3.467 0 0 0 3.462 3.463z"/></g></g></g><g ><g><g ><path fill="#d08c58" d="M16.187 45.873v-1.199h2.717v1.2z"/></g></g></g><g ><g><g ><path fill="#d08c58" d="M6.585 43.651h-.248A6.344 6.344 0 0 1 0 37.314a6.346 6.346 0 0 1 5.83-6.318 1.955 1.955 0 0 1 1.864-1.371c.852 0 2.694 1.103 3.239 1.441l.82.51-.82.51c-.545.338-2.387 1.44-3.239 1.44v-1.198c.247 0 .978-.337 1.733-.752-.755-.415-1.486-.752-1.733-.752a.753.753 0 0 0-.752.752v.6h-.6A5.146 5.146 0 0 0 1.2 37.313a5.145 5.145 0 0 0 4.896 5.132l5.28-5.28c.255-.255.603-.418 1.01-.472a2.276 2.276 0 0 0 1.96-2.25h1.199a3.48 3.48 0 0 1-3 3.438c-.1.013-.235.047-.32.132z"/></g></g></g><g ><g><g ><path fill="#d08c58" d="M17.917 29.781a7.15 7.15 0 0 1-4.484-1.586l.754-.933a5.946 5.946 0 0 0 3.73 1.32z"/></g></g></g><g ><g><g ><path fill="#d08c58" d="M30.978 35.044h-3.742l-6.751-7.797.907-.785 6.391 7.383h1.996v-2.27h1.199z"/></g></g></g><g ><g><g ><path fill="#d08c58" d="M14.811 31.436a9.335 9.335 0 0 1-6.212-8.788c0-5.139 4.18-9.319 9.318-9.319 1.575 0 3.135.402 4.508 1.163l.226.124.569 2.205c.62.369 2.44 1.452 3.343 2.005l.853.52-1.737 4.762h-5.097V22.91h4.257l1.113-3.05-.016-.01c-1.094-.67-3.542-2.124-3.542-2.124l-.212-.126-.562-2.178a8.137 8.137 0 0 0-3.703-.893c-4.477 0-8.119 3.643-8.119 8.12a8.134 8.134 0 0 0 5.413 7.657z"/></g></g></g><g ><g><g ><path fill="#d08c58" d="M21.096 18.722l-2.036-.48.275-1.168 2.036.481z"/></g></g></g></g><g><g ><g><g ><path fill="#d08c58" d="M99.153 56.52h-1.199v-4.29a6.347 6.347 0 0 1-5.738-6.31v-2.868a5.145 5.145 0 0 0-5.138-5.139v-1.199a6.345 6.345 0 0 1 6.337 6.338v2.868a5.145 5.145 0 0 0 5.139 5.138h.6z"/></g></g></g><g ><g><g ><path fill="#d08c58" d="M87.078 40.782v-1.199h2.869v1.2z"/></g></g></g><g ><g><g ><path fill="#d08c58" d="M84.743 46.02l-1.134-2.968a3.473 3.473 0 0 1 3.469-3.469v1.2c-1.215 0-2.21.96-2.266 2.16l1.045 2.635z"/></g></g></g><g ><g><g ><path fill="#d08c58" d="M89.668 46.02l-1.09-2.747 1.113-.442 1.09 2.747z"/></g></g></g><g ><g><g ><path fill="#d08c58" d="M93.307 34.445v-5.738h1.199v5.738z"/></g></g></g><g ><g><g ><path fill="#d08c58" d="M81.482 37.913h-3.01v-1.199h2.726l5.524-2.762 2.801-2.8.848.848-3.025 2.981z"/></g></g></g><g ><g><g ><path fill="#d08c58" d="M101.817 59.086h-8.698v-.6a2.569 2.569 0 0 1 2.566-2.566v1.2c-.54 0-1.006.313-1.228.767h6.303l.943-7.395-3.749-2.84v-4.6h1.2v4.004l3.827 2.9z"/></g></g></g><g ><g><g ><path fill="#d08c58" d="M89.616 49.389l-7.017-.036-3.109-1.12.204-.564a2.567 2.567 0 0 1 3.284-1.544l-.407 1.129a1.371 1.371 0 0 0-1.414.304l1.75.631h5.823l.922-3.002 1.146.352z"/></g></g></g><g ><g><g ><path fill="#d08c58" d="M83.893 26.438h-3.01l-5.865-2.932.536-1.072 5.611 2.805h2.728z"/></g></g></g><g ><g><g ><path fill="#d08c58" d="M83.88 32.077l-9.025-5.927.658-1.002 9.025 5.926z"/></g></g></g><g ><g><g ><path fill="#d08c58" d="M87.078 37.913a2.5 2.5 0 0 1-2.497-2.497h1.199a1.3 1.3 0 0 0 1.298 1.298z"/></g></g></g><g ><g><g ><path fill="#d08c58" d="M85.78 30.01h-1.2v-3.196a3.91 3.91 0 0 1 3.906-3.905v1.199a2.71 2.71 0 0 0-2.706 2.706z"/></g></g></g><g ><g><g ><path fill="#d08c58" d="M88.486 24.108V22.91a3.467 3.467 0 0 0 3.462-3.462v-2.241h1.199v2.24c0 2.571-2.09 4.662-4.661 4.662z"/></g></g></g><g ><g><g ><path fill="#d08c58" d="M89.947 45.873v-1.199h2.717v1.2z"/></g></g></g><g ><g><g ><path fill="#d08c58" d="M102.513 43.651h-.248l-5.638-5.637c-.068-.068-.176-.112-.321-.132a3.479 3.479 0 0 1-3-3.437h1.2c0 1.13.842 2.097 1.96 2.249a1.73 1.73 0 0 1 1.009.472l5.281 5.28a5.145 5.145 0 0 0 4.895-5.132 5.144 5.144 0 0 0-5.138-5.139h-.6l-.005-.6a.753.753 0 0 0-.752-.75c-.247 0-.977.336-1.732.75.755.416 1.485.753 1.732.753v1.199c-.852 0-2.694-1.103-3.238-1.442l-.82-.51.82-.509c.544-.338 2.386-1.441 3.238-1.441.875 0 1.616.578 1.864 1.372 3.26.261 5.83 2.994 5.83 6.317a6.344 6.344 0 0 1-6.337 6.337z"/></g></g></g><g ><g><g ><path fill="#d08c58" d="M90.933 29.781v-1.2c1.355 0 2.68-.468 3.73-1.319l.754.933a7.15 7.15 0 0 1-4.484 1.586z"/></g></g></g><g ><g><g ><path fill="#d08c58" d="M81.614 35.044h-3.741v-3.468h1.199v2.27h1.994l6.392-7.384.907.785z"/></g></g></g><g ><g><g ><path fill="#d08c58" d="M94.04 31.436l-.401-1.131a8.134 8.134 0 0 0 5.413-7.657c0-4.477-3.642-8.12-8.119-8.12a8.136 8.136 0 0 0-3.703.893l-.563 2.178-.212.126c-.001.001-2.446 1.455-3.541 2.124l-.016.01 1.113 3.05h4.258v1.2h-5.097l-1.737-4.763.853-.52c.903-.553 2.722-1.636 3.342-2.005l.57-2.205.225-.124a9.326 9.326 0 0 1 4.508-1.163c5.138 0 9.318 4.18 9.318 9.319a9.335 9.335 0 0 1-6.212 8.788z"/></g></g></g><g ><g><g ><path fill="#d08c58" d="M87.755 18.722l-.276-1.167 2.035-.48.276 1.166z"/></g></g></g></g></g></g></g></svg>