<svg xmlns="http://www.w3.org/2000/svg" width="170" height="60" viewBox="0 0 170 60"><g><g><g opacity="-1"><g><g opacity="-1"><g><g opacity="-1"><path fill="#d08c58" d="M95.924 8.614v10.68c0 5.382-3.493 9.765-10.679 13.394-7.186-3.63-10.68-8.012-10.68-13.394V8.614zM85.4 33.384c7.547-3.772 11.216-8.382 11.216-14.09V7.924H73.874v11.37c0 5.708 3.669 10.317 11.216 14.09l.155.078z"/></g></g></g><g opacity="-1"><g><g opacity="-1"><path fill="#d08c58" d="M84.9 33.076V8.269h.69v24.807z"/></g></g></g><g opacity="-1"><g><g opacity="-1"><path fill="#d08c58" d="M74.22 19.64v-.691h22.05v.69z"/></g></g></g><g opacity="-1"><g><g opacity="-1"><path fill="#d08c58" d="M74.62 22.396v-.691h10.625v.691z"/></g></g></g><g opacity="-1"><g><g opacity="-1"><path fill="#d08c58" d="M75.564 25.152v-.691h9.681v.691z"/></g></g></g><g opacity="-1"><g><g opacity="-1"><path fill="#d08c58" d="M77.46 27.909v-.692h7.785v.692z"/></g></g></g><g opacity="-1"><g><g opacity="-1"><path fill="#d08c58" d="M80.584 30.665v-.691h4.661v.691z"/></g></g></g><g opacity="-1"><g><g opacity="-1"><path fill="#d08c58" d="M87.656 19.294V8.27h.691v11.025z"/></g></g></g><g opacity="-1"><g><g opacity="-1"><path fill="#d08c58" d="M90.412 19.294V8.27h.691v11.025z"/></g></g></g><g opacity="-1"><g><g opacity="-1"><path fill="#d08c58" d="M93.168 19.294V8.27h.691v11.025z"/></g></g></g><g opacity="-1"><g><g opacity="-1"><path fill="#d08c58" d="M76.63 16.538v-5.513h.691v5.513z"/></g></g></g><g opacity="-1"><g><g opacity="-1"><path fill="#d08c58" d="M82.143 16.538v-5.513h.691v5.513z"/></g></g></g><g opacity="-1"><g><g opacity="-1"><path fill="#d08c58" d="M76.976 14.127v-.691h5.513v.691z"/></g></g></g><g opacity="-1"><g><g opacity="-1"><path fill="#d08c58" d="M88.347 27.563h-.691v-5.858h5.858v.691h-5.167z"/></g></g></g><g opacity="-1"><g><g opacity="-1"><path fill="#d08c58" d="M88.001 25.152v-.691h2.757v.691z"/></g></g></g><g opacity="-1"><g><g opacity="-1"><path fill="#d08c58" d="M76.976 5.858v-.691h16.538v.691z"/></g></g></g><g opacity="-1"><g><g opacity="-1"><path fill="#d08c58" d="M79.732 3.102A3.105 3.105 0 0 1 76.63 0h.691a2.414 2.414 0 0 0 2.411 2.41A2.414 2.414 0 0 0 82.143 0h.691a3.105 3.105 0 0 1-3.102 3.102z"/></g></g></g><g opacity="-1"><g><g opacity="-1"><path fill="#d08c58" d="M85.245 3.102A3.105 3.105 0 0 1 82.143 0h.691a2.414 2.414 0 0 0 2.411 2.41c1.33 0 2.41-1.081 2.41-2.41h.692a3.105 3.105 0 0 1-3.102 3.102z"/></g></g></g><g opacity="-1"><g><g opacity="-1"><path fill="#d08c58" d="M90.758 3.102A3.105 3.105 0 0 1 87.656 0h.691a2.414 2.414 0 0 0 2.41 2.41c1.33 0 2.41-1.081 2.41-2.41h.692a3.105 3.105 0 0 1-3.101 3.102z"/></g></g></g></g><g><g opacity="-1"><g><g opacity="-1"><g><path fill="#d08c58" d="M61.174 31.456h-.692v-3.149h.346a2.966 2.966 0 0 0 2.962-2.962v-1.653a3.657 3.657 0 0 1 3.653-3.654v.692a2.965 2.965 0 0 0-2.962 2.962v1.653a3.659 3.659 0 0 1-3.307 3.638z"/></g></g></g><g><g opacity="-1"><g><path fill="#d08c58" d="M65.79 22.384v-.692h1.653v.692z"/></g></g></g><g><g opacity="-1"><g><path fill="#d08c58" d="M68.789 25.403l-.642-.255.602-1.519a1.31 1.31 0 0 0-1.306-1.246v-.69c1.102 0 2 .896 2 1.999l-.025.128z"/></g></g></g><g><g opacity="-1"><g><path fill="#d08c58" d="M65.95 25.403l-.642-.255.63-1.584.641.256z"/></g></g></g><g><g opacity="-1"><g><path fill="#d08c58" d="M63.161 18.73v-3.307h.692v3.307z"/></g></g></g><g><g opacity="-1"><g><path fill="#d08c58" d="M72.404 20.73H70.67l-3.47-1.755-1.654-1.654.489-.489 1.614 1.614 3.184 1.592h1.572z"/></g></g></g><g><g opacity="-1"><g><path fill="#d08c58" d="M63.96 32.935h-5.013l-.671-5.264 2.206-1.67v-2.31h.692v2.653l-2.161 1.637.543 4.263h3.634a.789.789 0 0 0-.708-.443v-.69a1.48 1.48 0 0 1 1.479 1.478z"/></g></g></g><g><g opacity="-1"><g><path fill="#d08c58" d="M69.968 27.345H65.98l-.681-2.22.66-.202.532 1.73h3.357l1.01-.363a.788.788 0 0 0-.817-.176l-.234-.65a1.471 1.471 0 0 1 1.13.053c.358.168.629.465.762.837l.117.325z"/></g></g></g><g><g opacity="-1"><g><path fill="#d08c58" d="M71.015 14.115h-1.736v-.691h1.573l3.234-1.618.31.618z"/></g></g></g><g><g opacity="-1"><g><path fill="#d08c58" d="M69.285 17.364l-.379-.578 5.205-3.415.38.579z"/></g></g></g><g><g opacity="-1"><g><path fill="#d08c58" d="M67.443 20.73v-.691a.75.75 0 0 0 .749-.75h.69c0 .795-.645 1.44-1.44 1.44z"/></g></g></g><g><g opacity="-1"><g><path fill="#d08c58" d="M68.883 16.174h-.691V14.33c0-.86-.7-1.56-1.56-1.56v-.69a2.254 2.254 0 0 1 2.25 2.25z"/></g></g></g><g><g opacity="-1"><g><path fill="#d08c58" d="M66.632 12.771a2.69 2.69 0 0 1-2.687-2.687V8.793h.69v1.292c0 1.1.897 1.995 1.997 1.995z"/></g></g></g><g><g opacity="-1"><g><path fill="#d08c58" d="M64.223 25.318v-.69h1.566v.69z"/></g></g></g><g><g opacity="-1"><g><path fill="#d08c58" d="M58.688 24.037h-.143a3.657 3.657 0 0 1-3.653-3.653 3.658 3.658 0 0 1 3.361-3.642c.143-.457.57-.79 1.075-.79.49 0 1.553.636 1.866.83l.473.294-.473.294c-.313.195-1.375.831-1.866.831v-.691c.142 0 .563-.194.998-.434-.435-.239-.856-.433-.998-.433a.434.434 0 0 0-.434.433v.346h-.345a2.966 2.966 0 0 0-2.966 2.962 2.966 2.966 0 0 0 2.822 2.959l3.045-3.044a.996.996 0 0 1 .581-.272 1.312 1.312 0 0 0 1.13-1.297h.692c0 .996-.744 1.848-1.73 1.982a.333.333 0 0 0-.185.076z"/></g></g></g><g><g opacity="-1"><g><path fill="#d08c58" d="M65.22 16.042a4.122 4.122 0 0 1-2.584-.914l.434-.538c.606.49 1.37.76 2.15.76z"/></g></g></g><g><g opacity="-1"><g><path fill="#d08c58" d="M72.75 19.076h-2.157L66.7 14.58l.523-.452 3.684 4.256h1.15v-1.309h.692z"/></g></g></g><g><g opacity="-1"><g><path fill="#d08c58" d="M63.43 16.996a5.381 5.381 0 0 1-3.58-5.066 5.377 5.377 0 0 1 5.37-5.372c.909 0 1.808.231 2.6.67l.13.072.328 1.27c.357.213 1.406.838 1.927 1.156l.491.3-1 2.745h-2.939v-.69h2.454l.642-1.76-.01-.005c-.63-.386-2.041-1.224-2.041-1.224l-.122-.073-.325-1.255a4.69 4.69 0 0 0-2.134-.515c-2.58 0-4.68 2.1-4.68 4.68a4.689 4.689 0 0 0 3.12 4.415z"/></g></g></g><g><g opacity="-1"><g><path fill="#d08c58" d="M67.053 9.667l-1.174-.278.16-.672 1.173.277z"/></g></g></g></g><g opacity="-1"><g><g opacity="-1"><g><path fill="#d08c58" d="M110.008 31.456h-.691v-2.473a3.659 3.659 0 0 1-3.308-3.638v-1.653a2.966 2.966 0 0 0-2.962-2.962v-.692a3.657 3.657 0 0 1 3.653 3.654v1.653a2.966 2.966 0 0 0 2.962 2.962h.346z"/></g></g></g><g><g opacity="-1"><g><path fill="#d08c58" d="M103.047 22.384v-.692h1.654v.692z"/></g></g></g><g><g opacity="-1"><g><path fill="#d08c58" d="M101.7 25.403l-.653-1.711c0-1.103.897-2 2-2v.691c-.7 0-1.274.554-1.307 1.246l.603 1.519z"/></g></g></g><g><g opacity="-1"><g><path fill="#d08c58" d="M104.54 25.403l-.629-1.584.642-.255.629 1.584z"/></g></g></g><g><g opacity="-1"><g><path fill="#d08c58" d="M106.638 18.73v-3.307h.69v3.307z"/></g></g></g><g><g opacity="-1"><g><path fill="#d08c58" d="M99.82 20.73h-1.734v-.692h1.571l3.185-1.592 1.614-1.614.49.489-1.744 1.718z"/></g></g></g><g><g opacity="-1"><g><path fill="#d08c58" d="M111.543 32.935h-5.014v-.346c0-.815.664-1.479 1.48-1.479v.691c-.311 0-.58.18-.709.443h3.634l.544-4.263-2.161-1.637v-2.652h.69V26l2.207 1.671z"/></g></g></g><g><g opacity="-1"><g><path fill="#d08c58" d="M104.51 27.345l-4.045-.02-1.792-.646.117-.325a1.48 1.48 0 0 1 1.893-.89l-.234.65a.79.79 0 0 0-.815.176l1.008.364H104l.532-1.731.66.203z"/></g></g></g><g><g opacity="-1"><g><path fill="#d08c58" d="M101.21 14.115h-1.735l-3.38-1.69.309-.619 3.235 1.618h1.572z"/></g></g></g><g><g opacity="-1"><g><path fill="#d08c58" d="M101.203 17.365L96 13.95l.38-.578 5.203 3.416z"/></g></g></g><g><g opacity="-1"><g><path fill="#d08c58" d="M103.047 20.73c-.794 0-1.44-.646-1.44-1.44h.691a.75.75 0 0 0 .749.749z"/></g></g></g><g><g opacity="-1"><g><path fill="#d08c58" d="M102.298 16.174h-.69V14.33a2.254 2.254 0 0 1 2.25-2.25v.69c-.86 0-1.56.7-1.56 1.56z"/></g></g></g><g><g opacity="-1"><g><path fill="#d08c58" d="M103.858 12.771v-.69c1.1 0 1.996-.896 1.996-1.996V8.793h.691v1.292a2.69 2.69 0 0 1-2.687 2.686z"/></g></g></g><g><g opacity="-1"><g><path fill="#d08c58" d="M104.7 25.318v-.69h1.567v.69z"/></g></g></g><g><g opacity="-1"><g><path fill="#d08c58" d="M111.945 24.037h-.143l-3.25-3.25a.32.32 0 0 0-.186-.075 2.006 2.006 0 0 1-1.729-1.982h.692c0 .652.485 1.21 1.13 1.297a.998.998 0 0 1 .581.272l3.045 3.044a2.966 2.966 0 0 0 2.822-2.959 2.966 2.966 0 0 0-2.962-2.962h-.346l-.003-.346a.434.434 0 0 0-.433-.433c-.143 0-.564.194-1 .433.436.24.857.434 1 .434v.691c-.491 0-1.554-.636-1.867-.83l-.473-.295.473-.293c.313-.195 1.376-.831 1.867-.831.504 0 .93.333 1.074.79a3.659 3.659 0 0 1 3.361 3.642 3.657 3.657 0 0 1-3.653 3.653z"/></g></g></g><g><g opacity="-1"><g><path fill="#d08c58" d="M105.27 16.042v-.692c.78 0 1.544-.27 2.15-.76l.434.538a4.122 4.122 0 0 1-2.585.914z"/></g></g></g><g><g opacity="-1"><g><path fill="#d08c58" d="M99.897 19.076H97.74v-2h.692v1.309h1.15l3.684-4.256.523.452z"/></g></g></g><g><g opacity="-1"><g><path fill="#d08c58" d="M107.06 16.996l-.231-.652a4.689 4.689 0 0 0 3.12-4.414c0-2.581-2.1-4.68-4.68-4.68a4.69 4.69 0 0 0-2.134.514l-.325 1.255-.122.073s-1.41.838-2.041 1.224l-.01.006.642 1.758h2.454v.691h-2.938l-1.001-2.745.492-.3c.52-.318 1.569-.943 1.926-1.155l.328-1.271.13-.072a5.376 5.376 0 0 1 2.6-.67 5.378 5.378 0 0 1 5.37 5.372 5.381 5.381 0 0 1-3.58 5.066z"/></g></g></g><g><g opacity="-1"><g><path fill="#d08c58" d="M103.437 9.667l-.159-.673 1.173-.277.16.673z"/></g></g></g></g></g></g><g opacity="-1"><g><path fill="#fff" d="M9.635 47.187v11.795h-1.43v-5.308H1.807v5.308H.377V47.187h1.43v5.147h6.398v-5.147z"/></g><g><path fill="#fff" d="M15.746 54.37l1.609-4.235.518-1.59h.036l.554 1.644 1.59 4.182zm6.076 4.611h1.52l-4.576-11.794H17.07L12.476 58.98h1.501l1.251-3.27h5.343z"/></g><g><path fill="#fff" d="M27.612 48.527h3.02c1.668 0 2.502.703 2.502 2.109 0 1.406-.834 2.109-2.501 2.109h-3.02zm6.04 10.454h1.698l-3.324-5.057c.81-.214 1.448-.608 1.913-1.18.464-.571.697-1.274.697-2.108 0-1.06-.364-1.9-1.09-2.52-.727-.62-1.692-.93-2.896-.93h-4.467v11.796h1.43v-4.897h2.823z"/></g><g><path fill="#fff" d="M42.463 57.641h-2.52v-9.114h2.52c1.346 0 2.397.402 3.154 1.206.757.805 1.135 1.922 1.135 3.351 0 1.43-.378 2.547-1.135 3.35-.757.805-1.808 1.207-3.154 1.207zm-.143-10.454h-3.807V58.98h3.807c1.859 0 3.312-.511 4.36-1.536 1.049-1.025 1.573-2.478 1.573-4.36 0-1.883-.524-3.337-1.573-4.361-1.048-1.025-2.501-1.537-4.36-1.537z"/></g><g><path fill="#fff" d="M55.383 54.37v4.612h-1.43V54.37l-4.217-7.184h1.698l3.235 5.718 3.234-5.718h1.698z"/></g><g><path fill="#d08c58" d="M67.455 48.617c.244-.262.593-.394 1.046-.394 1 0 1.5.418 1.5 1.251 0 .477-.11.9-.33 1.27-.22.369-.694.75-1.42 1.143-.49-.631-.805-1.093-.948-1.385a2.027 2.027 0 0 1-.214-.903c0-.393.122-.72.366-.982zm2.046 9.114a4.291 4.291 0 0 1-1.519.268c-.643 0-1.197-.19-1.662-.572-.464-.381-.697-.858-.697-1.43 0-.464.152-.89.456-1.278.304-.387.89-.83 1.76-1.331l1.323 1.626a40.18 40.18 0 0 0 1.626 1.93 3.99 3.99 0 0 1-1.287.787zm4.012.116c-.315-.161-.706-.486-1.17-.974a6.3 6.3 0 0 0 .822-1.725c.19-.625.286-1.271.286-1.939l-.018-.429-1.144-.143c.012.108.018.268.018.483 0 1.096-.25 2.055-.75 2.877l-.787-.947-.643-.804a47.13 47.13 0 0 1-1.18-1.483c.917-.536 1.534-1.055 1.85-1.555.315-.5.473-1.09.473-1.77 0-.821-.265-1.432-.795-1.831-.53-.4-1.182-.599-1.957-.599-.584 0-1.084.125-1.5.375-.418.25-.733.575-.948.974-.214.4-.322.82-.322 1.26 0 .441.099.858.295 1.251.197.393.551.924 1.064 1.59-1.013.537-1.737 1.094-2.172 1.672a3.197 3.197 0 0 0-.652 1.974c0 .584.158 1.108.474 1.573.315.465.76.828 1.33 1.09.573.262 1.222.393 1.949.393.703 0 1.352-.119 1.948-.357a4.972 4.972 0 0 0 1.59-1.019c.56.56 1.03.93 1.412 1.108.381.179.81.268 1.287.268l.357-1.072c-.429 0-.801-.08-1.117-.241z"/></g><g><path fill="#fff" d="M82.672 48.527v3.807h5.325v1.34h-5.325v5.308h-1.43V47.187h8.256v1.34z"/></g><g><path fill="#fff" d="M100.774 57.641v1.34H92.59V47.188h1.43V57.64z"/></g><g><path fill="#fff" d="M108.066 48.348c1.226 0 2.195.42 2.904 1.26.708.84 1.063 1.999 1.063 3.476 0 1.477-.355 2.636-1.063 3.476-.71.84-1.678 1.26-2.904 1.26-1.228 0-2.196-.42-2.905-1.26-.708-.84-1.063-1.999-1.063-3.476 0-1.477.355-2.636 1.063-3.476.71-.84 1.677-1.26 2.905-1.26zm0-1.34c-1.109 0-2.073.247-2.895.742-.822.494-1.457 1.197-1.904 2.108-.447.912-.67 1.987-.67 3.226 0 1.24.223 2.314.67 3.226.447.911 1.082 1.614 1.904 2.109.822.494 1.786.741 2.895.741 1.108 0 2.072-.247 2.895-.741.822-.495 1.456-1.198 1.903-2.11.447-.91.67-1.986.67-3.225s-.223-2.314-.67-3.226c-.447-.91-1.081-1.614-1.903-2.108-.823-.495-1.787-.742-2.895-.742z"/></g><g><path fill="#fff" d="M126.258 54.585c0 1.513-.396 2.654-1.188 3.423-.793.768-1.94 1.152-3.44 1.152-1.502 0-2.649-.387-3.44-1.161-.793-.775-1.19-1.913-1.19-3.414v-7.398h1.43v7.041c0 1.24.26 2.148.778 2.725.518.578 1.325.867 2.422.867 1.095 0 1.903-.289 2.421-.867.518-.577.777-1.486.777-2.725v-7.041h1.43z"/></g><g><path fill="#fff" d="M131.87 48.527h3.02c1.667 0 2.501.703 2.501 2.109 0 1.406-.834 2.109-2.502 2.109h-3.02zm6.04 10.454h1.697l-3.324-5.057c.81-.214 1.448-.608 1.912-1.18.465-.571.697-1.274.697-2.108 0-1.06-.363-1.9-1.09-2.52-.727-.62-1.692-.93-2.895-.93h-4.468v11.796h1.43v-4.897h2.824z"/></g><g><path fill="#fff" d="M144.2 58.982h-1.43V47.187h1.43z"/></g><g><path fill="#fff" d="M156.852 49.51l-1.233 1c-.357-.786-.784-1.342-1.277-1.67-.495-.328-1.171-.492-2.029-.492-.905 0-1.617.188-2.135.563-.519.376-.778.855-.778 1.439 0 .381.101.697.304.947.202.25.539.468 1.01.653.47.184 1.122.348 1.957.49 1.56.263 2.665.656 3.315 1.18.649.525.974 1.251.974 2.18 0 .668-.188 1.255-.563 1.76-.376.507-.909.9-1.6 1.18-.69.28-1.49.42-2.395.42-1.191 0-2.207-.232-3.046-.697-.84-.464-1.481-1.084-1.922-1.858l1.233-1.001a3.663 3.663 0 0 0 1.421 1.635c.626.387 1.409.581 2.35.581.93 0 1.668-.17 2.216-.51.548-.339.822-.818.822-1.438 0-.524-.238-.941-.715-1.25-.476-.31-1.322-.573-2.537-.787-1.573-.274-2.687-.667-3.342-1.18-.655-.512-.983-1.227-.983-2.144 0-.632.179-1.215.536-1.752.358-.536.87-.962 1.537-1.277.667-.316 1.441-.474 2.323-.474 2.109 0 3.628.834 4.557 2.502z"/></g><g><path fill="#fff" d="M169.665 47.187v11.795h-1.43v-5.308h-6.397v5.308h-1.43V47.187h1.43v5.147h6.398v-5.147z"/></g></g></g></g></svg>